# xmcd
#
# Track frame offsets:
#	150
#	12272
#	25555
#	37179
#	48732
#	62807
#	77187
#	90178
#	104757
#	118079
#	130474
#	142681
#
# Disc length: 2096 seconds
# Revision: 0
# Processed by: cddbd v1.5.2PL0 Copyright (c) Steve Scherf et al.
# Submitted via: dBpowerAMP V12.0
#
DISCID=9f082e0c
DTITLE=Nathan Tinkham - Nathan Tinkham Sings Wilf Carter
DYEAR=1995
DGENRE=Folk
TTITLE0=Yodelling Cowboy
TTITLE1=My Nova Scotian Home
TTITLE2=Calgary Roundup
TTITLE3=Big Rock Candy Mountain
TTITLE4=Strawberry Roan
TTITLE5=Hobo's Song To The Mounties
TTITLE6=There's A Love Know In My Lariat
TTITLE7=I Ain't Gonna Hobo No More
TTITLE8=This Ol' House
TTITLE9=Waiting For A Train
TTITLE10=Hang The Key On The Bunkhouse Door
TTITLE11=You Are My Sunshine
EXTD=
EXTT0=
EXTT1=
EXTT2=
EXTT3=
EXTT4=
EXTT5=
EXTT6=
EXTT7=
EXTT8=
EXTT9=
EXTT10=
EXTT11=
PLAYORDER=
